<svg width="374" height="370" viewBox="0 0 374 370" fill="none" xmlns="http://www.w3.org/2000/svg">
<path d="M338.234 0V66.252H163.887C138.316 66.252 84.3841 80.1998 73.2259 135.991C62.0676 191.782 98.7968 231.301 118.556 244.086H45.3303C32.5448 240.599 0.000103159 195.269 0 135.991C-0.000121364 66.252 62.765 0 132.504 0H338.234Z" fill="#19400F"/>
<path d="M34.869 369.616V303.364H209.217C234.787 303.364 288.719 289.417 299.877 233.625C311.035 177.834 274.306 138.316 254.547 125.53H327.773C340.558 129.017 373.103 174.347 373.103 233.625C373.103 303.364 310.338 369.616 240.599 369.616H34.869Z" fill="#A1CF9B"/>
<path d="M134.601 120.151L166.519 152.07V120.151H134.601Z" fill="#4F6A18"/>
<path d="M187.798 120.151V174.235L207.304 194.627V126.357L187.798 120.151Z" fill="#4F6A18"/>
<path d="M229.469 215.02V141.43C244.364 153.488 251.044 173.053 252.521 181.328V238.072L229.469 215.02Z" fill="#4F6A18"/>
<path d="M122.188 134.337L154.106 166.256L122.188 166.256V134.337Z" fill="#4F6A18"/>
<path d="M122.188 187.534L176.272 187.534L196.664 207.04H128.394L122.188 187.534Z" fill="#4F6A18"/>
<path d="M217.056 229.206H143.467C155.525 244.101 175.089 250.78 183.365 252.258H240.108L217.056 229.206Z" fill="#4F6A18"/>
</svg>
